<?xml version="1.0" standalone="no"?>
<!DOCTYPE svg PUBLIC "-//W3C//DTD SVG 1.1//EN" "http://www.w3.org/Graphics/SVG/1.1/DTD/svg11.dtd" >
<svg xmlns="http://www.w3.org/2000/svg">
<metadata>
<json>
<![CDATA[
{
	"fontFamily": "UR_OMP",
	"majorVersion": 1,
	"minorVersion": 0,
	"version": "Version 1.0",
	"fontId": "UR_OMP",
	"psName": "UR_OMP",
	"subFamily": "Regular",
	"fullName": "UR_OMP",
	"description": "Font generated by IcoMoon."
}
]]>
</json>
</metadata>
<defs>
<font id="UR_OMP" horiz-adv-x="1024">
<font-face units-per-em="1024" ascent="960" descent="-64" />
<missing-glyph horiz-adv-x="1024" />
<glyph unicode="&#x20;" horiz-adv-x="512" d="" />
<glyph unicode="&#xe900;" glyph-name="dashboard" data-tags="dashboard" d="M850.4 74.192l-130.496 26.416c-14.739 3.059-25.657 15.937-25.657 31.365 0 2.241 0.23 4.428 0.669 6.539l-0.036-0.207c3.058 14.74 15.937 25.66 31.366 25.66 2.246 0 4.438-0.231 6.554-0.672l-0.208 0.036 110.128-22.304c42.199 61.582 67.459 137.663 67.648 219.632v0.048c0 0.093 0 0.203 0 0.314 0 61.023-14.106 118.751-39.235 170.101l1.011-2.287c-2.005 4.063-3.177 8.845-3.177 13.902 0 12.613 7.298 23.522 17.901 28.735l0.188 0.084c4.063 2.005 8.845 3.177 13.902 3.177 12.613 0 23.522-7.298 28.735-17.901l0.084-0.188c28.126-57.19 44.576-124.482 44.576-195.616 0-0.135 0-0.27 0-0.406v0.022c-0.243-102.761-34.321-197.516-91.677-273.765l0.845 1.173c-5.793-8.793-15.619-14.519-26.783-14.528h-0.001c-2.252 0.015-4.438 0.259-6.547 0.71l0.211-0.038zM163.152 79.68c-3.657 2.423-6.702 5.457-9.063 8.988l-0.073 0.116-0.528 0.816c-55.861 74.776-89.441 169.036-89.441 271.138 0 148.048 70.6 279.607 179.97 362.845l1.118 0.816c75.34 56.999 170.554 91.377 273.788 91.6h0.996c0.162 0 0.353 0 0.544 0 63.855 0 124.571-13.436 179.477-37.634l-2.853 1.122c11.469-5.035 19.334-16.292 19.334-29.386 0-4.565-0.956-8.906-2.678-12.835l0.080 0.206c-5.029-11.483-16.293-19.361-29.398-19.361-4.56 0-8.898 0.954-12.824 2.673l0.206-0.080c-34.6 15.354-74.732 25.963-116.829 29.749l-1.475 0.107 1.824-77.936c0.006-0.222 0.009-0.483 0.009-0.745 0-17.412-13.906-31.575-31.218-31.991l-0.039-0.001h-0.784c-0.002 0-0.005 0-0.008 0-17.414 0-31.58 13.91-31.991 31.226l-0.001 0.038-1.84 79.728c-78.188-6.241-148.776-34.419-206.832-78.302l0.992 0.718c-36.654-27.724-67.554-60.713-92.192-98.186l-0.912-1.478 86.224-55.872c8.845-5.791 14.607-15.653 14.607-26.861 0-6.473-1.922-12.497-5.226-17.533l0.075 0.121c-5.792-8.837-15.649-14.592-26.851-14.592-0.016 0-0.032 0-0.048 0h0.002c-0.011 0-0.025 0-0.038 0-6.442 0-12.44 1.904-17.461 5.179l0.123-0.075-81.76 52.992c-13.14-29.489-23.128-63.732-28.294-99.536l-0.25-2.112c-2.505-16.568-3.935-35.685-3.935-55.136 0-77.906 22.948-150.453 62.452-211.249l-0.917 1.505 84.8 56.24c4.973 3.338 11.094 5.328 17.68 5.328 11.087 0 20.857-5.638 26.599-14.204l0.073-0.115c3.338-4.973 5.328-11.094 5.328-17.68 0-11.087-5.638-20.857-14.204-26.599l-0.115-0.073-107.088-71.040q-0.96-0.848-2.016-1.6c-5.258-3.995-11.913-6.4-19.131-6.4-0.024 0-0.049 0-0.073 0h0.004c-0.042 0-0.093 0-0.143 0-6.607 0-12.746 2.002-17.844 5.433l0.114-0.073zM425.136 272.512c-0.755 0.739-1.466 1.511-2.136 2.318l-0.040 0.050c-21.954 23.064-35.46 54.344-35.46 88.779 0 35.484 14.342 67.618 37.545 90.922l-0.005-0.005c18.672 18.704 126.4 95.344 320.432 227.824 10.122 6.978 22.651 11.145 36.153 11.145 21.94 0 41.309-11.004 52.891-27.794l0.14-0.215c7.038-10.106 11.245-22.642 11.245-36.16s-4.207-26.054-11.383-36.369l0.138 0.209c-46.4-68.064-199.712-292.4-227.856-320.4-23.232-23.156-55.286-37.472-90.684-37.472-0.108 0-0.217 0-0.325 0h0.017c-0.089 0-0.195 0-0.301 0-35.244 0-67.173 14.194-90.381 37.179l0.010-0.010zM470.304 409.36c-11.651-11.711-18.854-27.859-18.854-45.688s7.202-33.977 18.857-45.691l-0.003 0.003c0.496-0.496 0.928-0.976 1.376-1.488 11.552-10.698 27.068-17.261 44.116-17.261 17.862 0 34.042 7.204 45.792 18.865l-0.004-0.004c17.088 17.024 123.68 169.392 220.144 311.12-212.016-144.416-299.84-208.288-311.424-219.856z" />
<glyph unicode="&#xe901;" glyph-name="stock" data-tags="stock" d="M599.968 584.016c-6.019 0.003-11.646 1.674-16.447 4.576l0.143-0.080-234.32 139.088c-9.453 5.677-15.68 15.874-15.68 27.526 0 6.026 1.665 11.662 4.561 16.475l-0.081-0.144c5.677 9.453 15.874 15.68 27.526 15.68 6.026 0 11.662-1.665 16.475-4.561l-0.144 0.081 234.32-139.088c9.453-5.677 15.68-15.874 15.68-27.526 0-6.026-1.665-11.662-4.561-16.475l0.081 0.144c-5.675-9.462-15.877-15.696-27.535-15.696-0.006 0-0.012 0-0.018 0h0.001zM522.4 30.288c-0.043 0-0.094 0-0.145 0-20.029 0-38.795 5.412-54.913 14.854l0.514-0.278-269.264 153.92c-32.797 19.229-54.494 54.27-54.592 94.386v307.934c0.081 40.061 21.7 75.054 53.889 94.026l0.511 0.278 269.52 154.080c15.624 9.141 34.402 14.538 54.44 14.538s38.816-5.397 54.958-14.817l-0.518 0.279 269.44-154c32.803-19.226 54.507-54.267 54.608-94.386v-308.11c-0.157-40.068-21.847-75.035-54.093-93.945l-0.515-0.279-269.504-154.080c-15.501-9.055-34.126-14.401-54-14.401-0.118 0-0.236 0-0.354 0.001h0.018zM522.32 800.064c-0.001 0-0.002 0-0.004 0-8.246 0-15.972-2.228-22.608-6.114l0.211 0.114-269.568-154.176c-13.461-7.945-22.359-22.361-22.4-38.858v-307.99c0.031-16.506 8.932-30.925 22.19-38.749l0.21-0.115 269.28-153.936c6.468-3.792 14.245-6.031 22.544-6.031s16.076 2.239 22.758 6.146l-0.214-0.115 269.504 154.080c13.465 7.933 22.367 22.348 22.4 38.843v307.941c-0.037 16.514-8.927 30.943-22.175 38.797l-0.209 0.115-269.328 153.92c-6.482 3.802-14.273 6.052-22.589 6.064h-0.003zM868.8 293.152v0zM522.384 427.28c-0.003 0-0.006 0-0.009 0-5.413 0-10.511 1.344-14.981 3.716l0.173-0.084-336.976 175.84c-10.299 5.457-17.196 16.108-17.196 28.37 0 5.422 1.348 10.528 3.728 15.003l-0.084-0.173c5.455 10.306 16.109 17.209 28.376 17.209 5.419 0 10.523-1.347 14.997-3.724l-0.173 0.084 322.176-168.128 322.16 168.128c4.3 2.294 9.405 3.641 14.824 3.641 12.267 0 22.922-6.902 28.292-17.035l0.084-0.174c2.294-4.3 3.641-9.405 3.641-14.824 0-12.267-6.902-22.922-17.035-28.292l-0.174-0.084-336.96-175.84c-4.282-2.288-9.366-3.632-14.764-3.632-0.035 0-0.070 0-0.105 0h0.005zM522.368 27.328c-17.673 0-32 14.327-32 32v0 400.096c0 17.673 14.327 32 32 32v0c17.673 0 32-14.327 32-32v0-400.096c0-17.673-14.327-32-32-32v0z" />
<glyph unicode="&#xe902;" glyph-name="vendor" data-tags="vendor" d="M869.984 44.624c-17.673 0-32 14.327-32 32v0 86.752c-0.091 78.108-63.381 141.404-141.479 141.504h-347.017c-78.107-0.1-141.397-63.396-141.488-141.495v-86.761c0-17.673-14.327-32-32-32v0c-17.673 0-32 14.327-32 32v0 86.752c0.127 113.44 92.049 205.367 205.475 205.504h346.957c113.442-0.137 205.367-92.062 205.504-205.491v-86.765c0 0 0 0 0 0 0-17.656-14.3-31.973-31.949-32h-0.003zM522.608 432c-114.824 0.127-207.873 93.176-208 207.988v0.012c0.127 114.824 93.176 207.873 207.988 208h0.012c114.824-0.127 207.873-93.176 208-207.988v-0.012c-0.137-114.82-93.18-207.863-207.987-208h-0.013zM522.608 784c-79.492-0.091-143.909-64.508-144-143.991v-0.009c0.091-79.492 64.508-143.909 143.991-144h0.009c79.489 0.1 143.9 64.511 144 143.99v0.010c-0.091 79.492-64.508 143.909-143.991 144h-0.009z" />
<glyph unicode="&#xe903;" glyph-name="promotion" data-tags="promotion" d="M875.584 496.816c-12.878 64.133-36.224 121.046-68.416 171.795l1.216-2.051c-43.644 76.317-101.449 139.686-170.36 188.382l-1.816 1.218c-28.617 21.050-63.535 35.192-101.461 39.309l-0.939 0.083c-2.661 0.28-5.749 0.439-8.875 0.439-35.8 0-66.71-20.94-81.148-51.24l-0.233-0.543c-41.072-85.488-84.048-171.872-125.6-255.408l-23.456-47.2c-2.609-4.872-6.192-8.906-10.517-11.96l-0.107-0.072c-11.68-8.192-23.552-16.128-35.392-24-15.168-10.144-30.304-20.304-44.8-30.688-36.216-23.749-59.802-64.156-59.802-110.072 0-10.327 1.193-20.376 3.449-30.016l-0.175 0.888c6.831-37.006 27.723-68.186 56.813-88.391l0.451-0.297c21.849-15.314 48.988-24.472 78.266-24.472 9.027 0 17.851 0.871 26.392 2.532l-0.866-0.14c17.5 4.503 32.051 9.335 46.171 15.013l-2.491-0.885 2.432-3.552q66.192-97.44 132.272-194.88c10.029-14.773 23.307-26.621 38.856-34.7l0.584-0.276c4.281-2.188 9.319-4.187 14.557-5.715l0.627-0.157c7.228-2.136 15.532-3.368 24.124-3.376h0.004c15.704 0.010 30.437 4.163 43.165 11.426l-0.429-0.226c20.203 11.353 35.202 29.948 41.608 52.183l0.152 0.617c2.188 7.441 3.446 15.99 3.446 24.833 0 20.402-6.699 39.24-18.018 54.433l0.172-0.242-115.888 170.896q36.144 2.96 72.288 6.064c64.16 5.44 130.496 11.088 195.664 14.928 42.262 2.091 77.034 31.799 86.762 71.355l0.134 0.645c3.659 14.844 5.758 31.885 5.758 49.416 0 15.618-1.666 30.847-4.829 45.518l0.256-1.414zM494.016 719.36c-3.367 13.435-6.595 30.668-8.932 48.184l-0.284 2.6c0.352 4.208 0.624 8 0.848 11.52 0.464 6.704 0.832 12.336 1.808 18.8 0.257 4.174 1.098 8.071 2.444 11.724l-0.092-0.284c5.976 16.119 21.221 27.399 39.101 27.399 5.165 0 10.11-0.941 14.673-2.662l-0.286 0.095c30.823-8.496 57.598-22.786 80.34-41.748l-0.34 0.276c53.115-42.369 97.445-93.097 131.626-150.566l1.398-2.538c26.326-39.825 46.985-86.147 59.393-135.74l0.655-3.092c3.431-13.058 5.401-28.048 5.401-43.499 0-10.235-0.865-20.269-2.524-30.031l0.148 1.050c-1.845-12.271-7.503-22.976-15.708-31.116l-0.004-0.004c-6.873-7.352-16.63-11.935-27.457-11.935-2.99 0-5.898 0.349-8.686 1.010l0.255-0.051c-32.84 8.311-61.352 23.613-85.040 44.302l0.24-0.206c-89.729 72.204-156.080 170.154-188.022 282.583l-0.954 3.929zM450.224 363.456q-22.752 33.696-45.632 67.456c-18.96 27.968-37.92 56-56.576 83.744-0.642 1.056-1.036 2.327-1.072 3.686v0.010q45.616 93.744 91.312 186.976c38.681-133.731 116.656-245.827 220.459-326.157l1.445-1.075-168.24-13.232c-12.512-0.96-25.072-1.952-38.512-3.296-1.088-0.224-2.24 0.288-3.184 1.888zM406.912 276.88c13.216 9.056 26.016 17.808 38.96 26.272l1.824 1.2c0.952 0.491 2.078 0.778 3.272 0.778 0.792 0 1.554-0.127 2.268-0.361l-0.051 0.015c2.172-0.84 3.876-2.482 4.779-4.553l0.021-0.055q65.856-96.896 131.808-194.576c2.755-3.457 4.837-7.581 5.969-12.082l0.047-0.222c0.591-2.319 0.931-4.982 0.931-7.723 0-15.225-10.465-28.006-24.595-31.541l-0.224-0.047c-2.364-0.614-5.077-0.967-7.873-0.967-11.92 0-22.343 6.409-28.012 15.968l-0.083 0.15q-58.64 86.24-117.216 172.496l-20.016 29.664zM397.856 339.552l-17.296-11.872c-17.856-12.288-36.32-25.008-54.896-36.912-11.923-7.951-26.581-12.687-42.345-12.687-23.070 0-43.771 10.145-57.884 26.216l-0.075 0.087c-14.947 14.59-24.217 34.938-24.217 57.451 0 17.764 5.771 34.18 15.542 47.476l-0.156-0.223c3.847 4.902 7.91 9.259 12.311 13.249l0.089 0.079c3.042 2.68 6.385 5.209 9.909 7.48l0.331 0.2 66.512 45.2zM618.672 703.904c-0.466 0.007-1.017 0.011-1.568 0.011-23.139 0-44.588-7.237-62.206-19.571l0.35 0.232c-8.202-5.096-13.581-14.056-13.581-24.272 0-5.269 1.431-10.204 3.925-14.437l-0.073 0.133c3.792-6.419 9.884-11.139 17.115-13.059l0.197-0.045c2.178-0.618 4.679-0.974 7.263-0.974 5.053 0 9.788 1.359 13.86 3.732l-0.131-0.071c1.6 0.832 3.2 1.792 4.88 2.768 1.008 0.608 2.032 1.232 3.072 1.792 7.924 4.275 17.343 6.787 27.348 6.787 17.861 0 33.853-8.005 44.582-20.624l0.069-0.083c8.459-10.049 13.599-23.135 13.599-37.421 0-17.845-8.019-33.816-20.649-44.508l-0.085-0.070-2.688-2.112c-1.922-1.414-3.612-2.825-5.212-4.33l0.028 0.026c-5.665-4.968-9.222-12.22-9.222-20.302 0-3.994 0.868-7.784 2.427-11.194l-0.069 0.168c3.66-10.332 13.347-17.6 24.731-17.6 0.007 0 0.015 0 0.022 0h-0.001c1.934 0.003 3.817 0.212 5.631 0.608l-0.175-0.032c7 1.629 13.12 4.694 18.292 8.882l-0.084-0.066c27.109 21.355 44.355 54.181 44.355 91.036 0 0.288-0.001 0.577-0.003 0.865v-0.044c-0.237 31.736-13.383 60.356-34.441 80.906l-0.023 0.022c-20.328 20.308-48.4 32.868-79.406 32.868-0.749 0-1.496-0.007-2.242-0.022l0.112 0.002z" />
<glyph unicode="&#xe904;" glyph-name="order" data-tags="order" d="M490 124.112c0-36.61-29.678-66.288-66.288-66.288s-66.288 29.678-66.288 66.288c0 36.61 29.678 66.288 66.288 66.288s66.288-29.678 66.288-66.288zM854.56 124.112c0-36.61-29.678-66.288-66.288-66.288s-66.288 29.678-66.288 66.288c0 36.61 29.678 66.288 66.288 66.288s66.288-29.678 66.288-66.288zM432.544 222.368c-49.399 0.197-90.533 35.342-99.969 81.983l-0.111 0.657-58.944 294.544c-0.238 0.851-0.467 1.933-0.635 3.035l-0.021 0.165-29.856 149.216h-115.008c-17.673 0-32 14.327-32 32v0c0 17.673 14.327 32 32 32v0h141.232c15.452-0.002 28.345-10.955 31.34-25.521l0.036-0.207 30.192-150.8h573.904c0.020 0 0.044 0 0.068 0 9.859 0 18.677-4.459 24.547-11.47l0.041-0.050c4.566-5.492 7.337-12.617 7.337-20.39 0-2.126-0.207-4.203-0.603-6.213l0.033 0.203-56.496-296.224c-9.564-47.558-51.001-82.877-100.688-82.88h-346.4zM343.6 575.472l51.632-257.952c3.612-17.888 19.204-31.168 37.898-31.168 0.002 0 0.005 0 0.007 0h344.464c0.314-0.009 0.683-0.014 1.053-0.014 18.741 0 34.391 13.232 38.118 30.864l0.045 0.254 49.2 257.984zM783.424 458.192h-316.416c-17.673 0-32 14.327-32 32v0c0 17.673 14.327 32 32 32v0h316.416c17.673 0 32-14.327 32-32v0c0-17.673-14.327-32-32-32v0zM692.992 339.136h-135.6c-17.673 0-32 14.327-32 32v0c0 17.673 14.327 32 32 32v0h135.6c17.673 0 32-14.327 32-32v0c0-17.673-14.327-32-32-32v0z" />
<glyph unicode="&#xe905;" glyph-name="file" data-tags="file" d="M730.272 60.8h-433.92c-57.553 0.082-104.193 46.693-104.32 104.228v578.652c0.073 57.585 46.735 104.247 104.313 104.32h289.287c8.836-0.002 16.834-3.585 22.624-9.376l216.992-216.976c5.774-5.788 9.344-13.776 9.344-22.599 0-0.014 0-0.029 0-0.043v0.002-433.92c-0.082-57.575-46.743-104.224-104.314-104.288h-0.006zM296.352 784c-22.253-0.036-40.284-18.066-40.32-40.316v-578.612c0.064-22.233 18.083-40.236 40.317-40.272h433.923c22.255 0.018 40.293 18.050 40.32 40.301v420.659l-198.24 198.24zM802.608 567.008h-216.976c-17.673 0-32 14.327-32 32v0 216.992c0 17.673 14.327 32 32 32v0c17.673 0 32-14.327 32-32v0-184.992h184.976c17.673 0 32-14.327 32-32v0c0-17.673-14.327-32-32-32v0zM657.296 398.368h-288c-17.673 0-32 14.327-32 32v0c0 17.673 14.327 32 32 32v0h288c17.673 0 32-14.327 32-32v0c0-17.673-14.327-32-32-32v0zM657.296 254.368h-288c-17.673 0-32 14.327-32 32v0c0 17.673 14.327 32 32 32v0h288c17.673 0 32-14.327 32-32v0c0-17.673-14.327-32-32-32v0zM440.976 530.864h-72.32c-17.673 0-32 14.327-32 32v0c0 17.673 14.327 32 32 32v0h72.32c17.673 0 32-14.327 32-32v0c0-17.673-14.327-32-32-32v0z" />
<glyph unicode="&#xe906;" glyph-name="down_arrow" data-tags="down_arrow" d="M523.712 212.384c-8.836 0.002-16.834 3.585-22.624 9.376l-379.696 379.664c-5.789 5.791-9.369 13.789-9.369 22.624s3.58 16.833 9.369 22.624v0c5.791 5.789 13.789 9.369 22.624 9.369s16.833-3.58 22.624-9.369l357.072-357.040 356.96 357.040c5.791 5.794 13.793 9.377 22.632 9.377s16.841-3.584 22.632-9.377v0c5.794-5.791 9.377-13.793 9.377-22.632s-3.584-16.841-9.377-22.632l-379.6-379.664c-5.79-5.783-13.785-9.36-22.615-9.36-0.003 0-0.006 0-0.010 0h0.001z" />
<glyph unicode="&#xe907;" glyph-name="up_arrow" data-tags="up_arrow" d="M523.696 656c-8.836-0.002-16.834-3.585-22.624-9.376l-379.696-379.664c-5.789-5.791-9.369-13.789-9.369-22.624s3.58-16.833 9.369-22.624v0c5.791-5.789 13.789-9.369 22.624-9.369s16.833 3.58 22.624 9.369l357.072 357.072 356.96-357.040c5.791-5.794 13.793-9.377 22.632-9.377s16.841 3.584 22.632 9.377v0c5.794 5.791 9.377 13.793 9.377 22.632s-3.584 16.841-9.377 22.632l-379.6 379.616c-5.79 5.791-13.788 9.374-22.624 9.376v0z" />
<glyph unicode="&#xe908;" glyph-name="right_arrow" data-tags="right_arrow" d="M745.488 434.112c-0.002 8.836-3.585 16.834-9.376 22.624l-379.664 379.696c-5.791 5.789-13.789 9.369-22.624 9.369s-16.833-3.58-22.624-9.369v0c-5.789-5.791-9.369-13.789-9.369-22.624s3.58-16.833 9.369-22.624l357.072-357.072-357.040-356.96c-5.794-5.791-9.377-13.793-9.377-22.632s3.584-16.841 9.377-22.632v0c5.791-5.794 13.793-9.377 22.632-9.377s16.841 3.584 22.632 9.377l379.616 379.6c5.791 5.79 9.374 13.788 9.376 22.624v0z" />
<glyph unicode="&#xe909;" glyph-name="left_arrow" data-tags="left_arrow" d="M301.824 434.096c0.002 8.836 3.585 16.834 9.376 22.624l379.664 379.696c5.726 5.446 13.49 8.797 22.037 8.797 17.673 0 32-14.327 32-32 0-8.55-3.354-16.318-8.817-22.058l-356.995-357.059 357.008-356.96c5.793-5.791 9.377-13.793 9.377-22.632 0-17.674-14.327-32.001-32.001-32.001-8.835 0-16.833 3.58-22.624 9.369l-379.648 379.6c-5.791 5.79-9.374 13.788-9.376 22.624v0z" />
<glyph unicode="&#xe90a;" glyph-name="close" data-tags="close" d="M822.48 105.584c-8.836 0.002-16.834 3.585-22.624 9.376l-598.4 598.4c-5.789 5.791-9.369 13.789-9.369 22.624s3.58 16.833 9.369 22.624v0c5.791 5.789 13.789 9.369 22.624 9.369s16.833-3.58 22.624-9.369l598.496-598.4c5.789-5.791 9.369-13.789 9.369-22.624s-3.58-16.833-9.369-22.624v0c-5.791-5.793-13.793-9.376-22.631-9.376-0.031 0-0.063 0-0.094 0h0.005zM224.096 105.584c-0.003 0-0.006 0-0.009 0-8.838 0-16.84 3.583-22.631 9.376v0c-5.789 5.791-9.369 13.789-9.369 22.624s3.58 16.833 9.369 22.624l598.4 598.4c5.791 5.794 13.793 9.377 22.632 9.377s16.841-3.584 22.632-9.377v0c5.794-5.791 9.377-13.793 9.377-22.632s-3.584-16.841-9.377-22.632l-598.48-598.4c-5.773-5.767-13.739-9.34-22.54-9.36h-0.004z" />
<glyph unicode="&#xe90b;" glyph-name="add" data-tags="add" d="M500.646-8.954c-6.246 6.249-9.369 14.438-9.368 22.627v846.266c0.001 8.188 3.125 16.375 9.373 22.623s14.435 9.371 22.623 9.373v0c8.188-0.001 16.375-3.125 22.623-9.373s9.371-14.435 9.373-22.623l0.068-846.333c-0.001-8.188-3.125-16.375-9.373-22.623s-14.435-9.371-22.623-9.373v0c-8.191-0.001-16.383 3.123-22.632 9.373-0.022 0.022-0.044 0.044-0.066 0.066l0.003-0.003zM77.525 414.168c-0.002 0.002-0.004 0.004-0.006 0.006-6.25 6.25-9.374 14.441-9.373 22.632v0c0.001 8.188 3.125 16.375 9.373 22.623s14.435 9.371 22.623 9.373h846.265c8.192 0.002 16.384-3.123 22.634-9.373s9.374-14.442 9.373-22.634v0c0.002-8.192-3.123-16.384-9.373-22.634s-14.442-9.374-22.634-9.373l-846.322 0.057c-8.16 0.004-16.32 3.111-22.557 9.32l-0.003 0.003z" />
<glyph unicode="&#xe90c;" glyph-name="left_arrow1" data-tags="left_arrow" d="M912.592 390.096h-738.624c-17.673 0-32 14.327-32 32v0c0 17.673 14.327 32 32 32v0h738.624c17.673 0 32-14.327 32-32v0c0-17.673-14.327-32-32-32v0zM479.024 49.952c-0.014 0-0.030 0-0.046 0-8.822 0-16.806 3.584-22.577 9.375l-351.025 351.009c-5.793 5.791-9.376 13.793-9.376 22.631 0 0.003 0 0.006 0 0.010v0c0.002 8.836 3.585 16.834 9.376 22.624l351.024 351.024c5.791 5.789 13.789 9.369 22.624 9.369s16.833-3.58 22.624-9.369v0c5.789-5.791 9.369-13.789 9.369-22.624s-3.58-16.833-9.369-22.624l-328.384-328.4 328.384-328.4c5.789-5.791 9.369-13.789 9.369-22.624s-3.58-16.833-9.369-22.624v0c-5.767-5.792-13.747-9.376-22.565-9.376-0.021 0-0.042 0-0.063 0h0.003z" />
<glyph unicode="&#xe90d;" glyph-name="help" data-tags="help" d="M515.808 257.072c-103.324 0.118-187.047 83.87-187.12 187.193v0.007c0.164 103.262 83.852 186.922 187.109 187.040h0.011c103.296-0.118 187.002-83.824 187.12-187.109v-0.011c-0.118-103.296-83.824-187.002-187.109-187.12h-0.011zM515.808 567.312c-67.979-0.046-123.074-55.141-123.12-123.116v-0.004c0-68.013 55.113-123.154 123.116-123.2h0.004c68.007 0.046 123.12 55.187 123.12 123.2v0c-0.046 67.979-55.141 123.074-123.116 123.12h-0.004zM515.824 24.336c-231.758 0.273-419.56 188.081-419.824 419.815v0.025c0.282 231.746 188.077 419.535 419.798 419.808h0.026c231.754-0.264 419.558-188.057 419.84-419.781v-0.027c-0.264-231.765-188.075-419.576-419.815-419.84h-0.025zM515.824 800c-196.425-0.228-355.596-159.399-355.824-355.802v-0.022c0.228-196.428 159.397-355.603 355.801-355.84h0.023c196.433 0.228 355.612 159.407 355.84 355.818v0.022c-0.246 196.42-159.418 355.58-355.818 355.808h-0.022zM787.472 140.544c-0.018 0-0.040 0-0.062 0-8.806 0-16.777 3.571-22.546 9.344v0l-160.8 160.496c-5.794 5.791-9.377 13.793-9.377 22.632s3.584 16.841 9.377 22.632v0c5.791 5.794 13.793 9.377 22.632 9.377s16.841-3.584 22.632-9.377v0l160.736-160.464c5.794-5.791 9.377-13.793 9.377-22.632s-3.584-16.841-9.377-22.632v0c-5.777-5.792-13.765-9.376-22.591-9.376 0 0-0.001 0-0.001 0v0zM261.024 131.184c-0.018 0-0.039 0-0.059 0-8.817 0-16.798 3.584-22.563 9.375l-0.001 0.001c-5.789 5.791-9.369 13.789-9.369 22.624s3.58 16.833 9.369 22.624l156.704 156.704c5.791 5.789 13.789 9.369 22.624 9.369s16.833-3.58 22.624-9.369v0c5.789-5.791 9.369-13.789 9.369-22.624s-3.58-16.833-9.369-22.624l-156.704-156.704c-5.767-5.792-13.747-9.376-22.565-9.376-0.021 0-0.042 0-0.063 0h0.003zM404.672 523.008c-0.018 0-0.039 0-0.059 0-8.817 0-16.798 3.584-22.563 9.375l-156.705 156.705c-5.789 5.791-9.369 13.789-9.369 22.624s3.58 16.833 9.369 22.624v0c5.791 5.789 13.789 9.369 22.624 9.369s16.833-3.58 22.624-9.369l156.704-156.704c5.789-5.791 9.369-13.789 9.369-22.624s-3.58-16.833-9.369-22.624v0c-5.767-5.792-13.747-9.376-22.565-9.376-0.021 0-0.042 0-0.063 0h0.003zM639.664 509.952c-0.018 0-0.039 0-0.059 0-8.817 0-16.798 3.584-22.563 9.375l-0.001 0.001c-5.789 5.791-9.369 13.789-9.369 22.624s3.58 16.833 9.369 22.624l156.704 156.704c5.791 5.789 13.789 9.369 22.624 9.369s16.833-3.58 22.624-9.369v0c5.789-5.791 9.369-13.789 9.369-22.624s-3.58-16.833-9.369-22.624l-156.704-156.704c-5.767-5.792-13.747-9.376-22.565-9.376-0.021 0-0.042 0-0.063 0h0.003z" />
<glyph unicode="&#xe90e;" glyph-name="logout" data-tags="logout" d="M514.848 89.12h-276c-61.192 0.082-110.775 49.67-110.848 110.857v473.159c0.073 61.194 49.656 110.782 110.84 110.864h276.008c61.199-0.073 110.791-49.665 110.864-110.857v-78.855c0-17.673-14.327-32-32-32v0c-17.673 0-32 14.327-32 32v0 78.848c-0.027 25.871-20.993 46.837-46.861 46.864h-276.003c-25.864-0.036-46.821-20.998-46.848-46.861v-473.155c0.027-25.866 20.984-46.828 46.845-46.864h276.003c25.866 0.027 46.828 20.984 46.864 46.845v78.883c0 17.673 14.327 32 32 32v0c17.673 0 32-14.327 32-32v0-78.864c-0.064-61.203-49.661-110.8-110.858-110.864h-0.006zM751.424 286.272c-0.010 0-0.021 0-0.033 0-8.826 0-16.814 3.584-22.59 9.375l-0.001 0.001c-5.789 5.791-9.369 13.789-9.369 22.624s3.58 16.833 9.369 22.624l63.648 63.664h-474.752c-17.673 0-32 14.327-32 32v0c0 17.673 14.327 32 32 32v0h474.752l-63.648 63.664c-5.789 5.791-9.369 13.789-9.369 22.624s3.58 16.833 9.369 22.624v0c5.791 5.794 13.793 9.377 22.632 9.377s16.841-3.584 22.632-9.377l118.272-118.288c5.235-5.271 8.647-12.358 9.21-20.233l0.006-0.103c0.048-0.65 0.075-1.408 0.075-2.172 0-1.445-0.097-2.868-0.285-4.262l0.018 0.163c-0.856-6.535-3.569-12.316-7.585-16.935l0.033 0.039c-0.544-0.624-1.12-1.232-1.712-1.824l-118.128-118.112c-5.75-5.822-13.721-9.439-22.538-9.472h-0.006z" />
<glyph unicode="&#xe90f;" glyph-name="notification" data-tags="notification" d="M848.864 218.832h-656.864c-14.366 0.003-26.52 9.472-30.563 22.509l-0.061 0.227c-0.869 2.772-1.37 5.958-1.37 9.262 0 11.058 5.608 20.805 14.136 26.553l0.114 0.072c0.592 0.432 95.216 70.112 95.216 301.792v3.936c0.401 69.334 29.036 131.902 74.979 176.852l0.045 0.044c45 44.506 106.904 72.001 175.23 72.001 0.22 0 0.44 0 0.66-0.001h2.19c69.306-0.418 131.843-29.051 176.772-74.979l0.044-0.045c44.51-45.008 72.006-106.921 72.006-175.255 0-0.611-0.002-1.221-0.007-1.83l0.001 0.094v-0.784c0-231.68 94.624-301.392 95.584-302.064 8.305-5.921 13.657-15.521 13.657-26.37 0-3.432-0.536-6.739-1.528-9.843l0.063 0.229c-4.157-13.043-16.136-22.336-30.296-22.4h-0.008zM262.064 282.832h516.8c-33.696 52.224-71.216 144.256-71.392 295.376 0 0.432 0 0.864 0 1.312 0.008 0.622 0.012 1.356 0.012 2.092 0 50.909-20.484 97.033-53.661 130.581l0.017-0.017c-33.506 34.248-80.096 55.577-131.67 55.888h-0.058c-0.684 0.009-1.491 0.014-2.3 0.014-50.844 0-96.902-20.489-130.369-53.66l0.014 0.013c-34.248-33.506-55.577-80.096-55.888-131.67v-3.258c-0.096-151.968-37.728-244.384-71.504-296.672zM520.24 36.432c-0.009 0-0.021 0-0.032 0-19.342 0-37.454 5.265-52.981 14.441l0.485-0.265c-15.887 9.329-28.767 22.209-37.829 37.605l-0.267 0.491c-2.714 4.602-4.318 10.141-4.318 16.053 0 11.755 6.339 22.030 15.784 27.593l0.15 0.082c4.607 2.721 10.152 4.329 16.072 4.329 11.753 0 22.027-6.336 27.59-15.779l0.082-0.15c3.642-6.202 8.667-11.232 14.673-14.776l0.191-0.104c5.886-3.448 12.961-5.484 20.512-5.484 15.058 0 28.224 8.097 35.383 20.174l0.104 0.19c5.646 9.589 15.917 15.922 27.668 15.922 5.916 0 11.456-1.605 16.21-4.404l-0.15 0.082c9.595-5.645 15.934-15.919 15.934-27.675 0-5.913-1.604-11.451-4.4-16.203l0.082 0.15c-18.552-31.481-52.283-52.272-90.87-52.272-0.026 0-0.052 0-0.078 0h0.004z" />
<glyph unicode="&#xe910;" glyph-name="setting" data-tags="setting" d="M546.192 58.32h-62.864c-0.063 0-0.137 0-0.211 0-37.439 0-68.511 27.261-74.449 63.016l-0.060 0.44-5.152 30.96q-7.696 2.928-15.248 6.256l-26.224-18.704c-12.196-8.889-27.479-14.222-44.008-14.222-20.974 0-39.943 8.587-53.582 22.437l-44.121 44.121c-13.853 13.67-22.434 32.653-22.434 53.64 0 16.566 5.346 31.882 14.407 44.32l-0.149-0.215 17.952 24.992q-3.744 8.288-6.992 16.736l-31.792 5.44c-36.093 6.129-63.233 37.165-63.233 74.541 0 0.119 0 0.238 0.001 0.357v-0.018 62.4c0 0.088-0.001 0.193-0.001 0.298 0 37.501 27.322 68.62 63.145 74.538l0.439 0.060 30.192 5.104q3.2 8.56 6.912 16.912l-18.72 26.288c-8.949 12.267-14.319 27.642-14.319 44.271 0 20.964 8.533 39.935 22.315 53.629l44.468 44.1c13.692 13.763 32.645 22.28 53.588 22.28 16.518 0 31.798-5.298 44.234-14.288l-0.221 0.152 25.072-18.192q8.256 3.744 16.688 7.008l5.424 31.792c6.024 36.102 37.031 63.281 74.386 63.281 0.118 0 0.235 0 0.352-0.001h62.894c0.053 0 0.117 0 0.18 0 37.435 0 68.509-27.232 74.495-62.966l0.061-0.442 5.248-30.208q9.504-3.552 18.768-7.728l25.472 18.176c11.632 8.822 26.351 14.133 42.31 14.133 0.6 0 1.198-0.008 1.794-0.022l-0.088 0.002c20.961-0.070 39.912-8.62 53.613-22.397l0.003-0.003 44.032-44.128c13.811-13.673 22.363-32.636 22.363-53.596 0-16.52-5.312-31.799-14.322-44.223l0.151 0.219-18.304-25.6q3.728-8.304 6.96-16.8l31.088-5.248c35.973-5.92 63.079-36.787 63.079-73.985 0-0.371-0.003-0.741-0.008-1.111l0.001 0.056v-62.096c0-0.087 0.001-0.189 0.001-0.292 0-37.426-27.225-68.493-62.95-74.479l-0.442-0.061-31.008-5.2c-2.176-5.664-4.496-11.296-6.976-16.832l18.224-25.712c8.794-12.196 14.065-27.441 14.065-43.918 0-20.988-8.553-39.979-22.364-53.677l-0.005-0.005-44.128-44.176c-13.663-13.839-32.632-22.411-53.604-22.411-16.52 0-31.797 5.319-44.213 14.337l0.217-0.15-25.6 18.304q-8.304-3.744-16.832-6.976l-5.28-31.136c-6.039-36.158-37.096-63.376-74.51-63.376-0.063 0-0.125 0-0.188 0h0.010zM384.992 227.92c0.007 0 0.014 0 0.022 0 5.388 0 10.465-1.332 14.92-3.684l-0.174 0.084c11.707-6.251 25.455-12.021 39.763-16.53l1.757-0.478c11.522-3.616 20.115-13.266 22.149-25.154l0.027-0.19 8.288-49.824c0.935-5.649 5.784-9.904 11.626-9.904 0.013 0 0.027 0 0.040 0h62.702c0.028 0 0.061 0 0.094 0 5.826 0 10.663 4.23 11.609 9.787l0.010 0.070 8.464 49.936c2.090 12.018 10.645 21.613 21.885 25.17l0.227 0.062c16.528 5.16 30.697 11.179 44.127 18.396l-1.327-0.652c4.339 2.335 9.494 3.707 14.971 3.707 6.989 0 13.455-2.235 18.724-6.029l-0.095 0.065 41.040-29.36c1.872-1.355 4.215-2.167 6.747-2.167 3.226 0 6.144 1.319 8.244 3.446l0.001 0.001 44.272 44.336c2.19 2.143 3.548 5.129 3.548 8.431 0 2.576-0.826 4.959-2.228 6.899l0.024-0.035-29.216 41.184c-3.691 5.148-5.902 11.574-5.902 18.517 0 5.471 1.373 10.622 3.793 15.126l-0.084-0.171c6.561 12.105 12.58 26.279 17.261 41.049l0.483 1.767c3.629 11.483 13.252 20.044 25.106 22.085l0.19 0.027 49.808 8.32c5.649 0.935 9.904 5.784 9.904 11.626 0 0.019 0 0.038 0 0.057v-0.003 62.4c0.005 0.121 0.007 0.264 0.007 0.407 0 5.621-4.083 10.289-9.444 11.199l-0.067 0.009h-0.176l-49.856 8.416c-12.024 2.084-21.627 10.641-25.186 21.885l-0.062 0.227c-5.163 16.536-11.182 30.71-18.397 44.147l0.653-1.331c-2.34 4.336-3.714 9.489-3.714 14.964 0 6.994 2.244 13.464 6.051 18.73l-0.064-0.094 29.376 41.056c1.366 1.888 2.185 4.249 2.185 6.802 0 3.263-1.338 6.213-3.495 8.333l-0.002 0.002-44.224 44.336c-2.116 2.135-5.046 3.46-8.286 3.472h-0.002c-0.011 0-0.024 0-0.036 0-2.448 0-4.713-0.786-6.556-2.119l0.033 0.023-41.184-29.36c-5.166-3.712-11.619-5.936-18.591-5.936-5.492 0-10.661 1.38-15.18 3.812l0.171-0.084c-12.584 6.843-27.281 13.043-42.616 17.789l-1.752 0.467c-11.524 3.582-20.134 13.195-22.212 25.056l-0.028 0.192-8.56 49.168c-0.865 5.763-5.776 10.134-11.711 10.144h-62.497c-0.015 0-0.032 0-0.049 0-5.888 0-10.794-4.207-11.875-9.78l-0.012-0.076-8.624-50.576c-2.099-11.96-10.6-21.511-21.773-25.089l-0.227-0.063c-16.453-5.184-30.577-11.266-43.937-18.569l1.265 0.633c-4.383-2.402-9.603-3.816-15.154-3.816-7.065 0-13.594 2.289-18.888 6.166l0.090-0.063-40.496 29.376c-1.858 1.287-4.161 2.055-6.642 2.055-3.289 0-6.262-1.35-8.396-3.526l-0.002-0.002-44.48-44.096c-2.115-2.14-3.421-5.083-3.421-8.331 0-2.631 0.857-5.062 2.308-7.029l-0.023 0.033 29.744-41.792c3.707-5.155 5.928-11.595 5.928-18.554 0-5.418-1.347-10.522-3.724-14.995l0.084 0.173c-6.489-12.119-12.421-26.318-17.004-41.11l-0.468-1.754c-3.564-11.569-13.205-20.217-25.105-22.292l-0.191-0.028-49.2-8.32c-5.747-0.887-10.096-5.798-10.096-11.725 0-0.001 0-0.002 0-0.004v0-62.4c0-0.023 0-0.050 0-0.077 0-5.843 4.245-10.695 9.819-11.641l0.070-0.010 50.528-8.624c11.977-2.102 21.539-10.624 25.106-21.821l0.062-0.227c5.164-16.425 11.209-30.518 18.462-43.858l-0.638 1.282c2.39-4.374 3.795-9.581 3.795-15.116 0-7.004-2.25-13.483-6.068-18.753l0.064 0.093-29.12-40.544c-1.365-1.878-2.183-4.23-2.183-6.773 0-3.251 1.338-6.19 3.493-8.296l44.306-44.322c2.109-2.163 5.052-3.504 8.308-3.504 2.539 0 4.888 0.816 6.798 2.2l-0.034-0.023 41.6 29.696c5.139 3.673 11.551 5.872 18.476 5.872 0.052 0 0.104 0 0.156 0h-0.008zM514.944 267.776c-0.143 0-0.312-0.001-0.481-0.001-48.835 0-93.031 19.861-124.952 51.945l-0.007 0.007c-32.121 31.948-52.001 76.176-52.001 125.047 0 0.149 0 0.299 0.001 0.448v-0.023c0.073 97.975 79.468 177.381 177.431 177.472h0.009c97.98-0.073 177.39-79.477 177.472-177.448v-0.008c-0.091-97.961-79.479-177.349-177.431-177.44h-0.009zM514.944 590.672v-32c-0.085 0-0.186 0-0.286 0-31.235 0-59.502-12.704-79.917-33.227l-0.005-0.005c-20.528-20.429-33.232-48.705-33.232-79.949 0-0.102 0-0.205 0-0.307v0.016c0-0.090 0-0.197 0-0.303 0-31.232 12.711-59.496 33.243-79.899l0.006-0.006c20.408-20.518 48.661-33.216 79.879-33.216 0.11 0 0.22 0 0.33 0h-0.017c62.614 0.091 113.349 50.825 113.44 113.431v0.009c-0.082 62.627-50.829 113.374-113.448 113.456h-0.008z" />
<glyph unicode="&#xe911;" glyph-name="crop" data-tags="crop" d="M272 656h-96c-17.673 0-32 14.327-32 32v0c0 17.673 14.327 32 32 32v0h96c17.673 0 32-14.327 32-32v0c0-17.673-14.327-32-32-32v0zM874.048 180.96h-584.24c-17.673 0-32 14.327-32 32v0 584.208c0 17.673 14.327 32 32 32v0c17.673 0 32-14.327 32-32v0-552.208h552.24c17.673 0 32-14.327 32-32v0c0-17.673-14.327-32-32-32v0zM747.040 282.576c-17.673 0-32 14.327-32 32v0 323.6h-323.632c-17.673 0-32 14.327-32 32v0c0 17.673 14.327 32 32 32v0h355.632c17.673 0 32-14.327 32-32v0-355.6c0-17.673-14.327-32-32-32v0zM752 48c-17.673 0-32 14.327-32 32v0 128c0 17.673 14.327 32 32 32v0c17.673 0 32-14.327 32-32v0-128c0-17.673-14.327-32-32-32v0z" />
<glyph unicode="&#xe912;" glyph-name="rotation" data-tags="rotation" d="M812.736 489.344h-146.928c-17.673 0-32 14.327-32 32v0c0 17.673 14.327 32 32 32v0h114.928v114.944c0 17.673 14.327 32 32 32v0c17.673 0 32-14.327 32-32v0-146.944c0-17.673-14.327-32-32-32v0zM812.736 489.36c-0.018 0-0.039 0-0.059 0-8.817 0-16.798 3.584-22.563 9.375l-103.889 103.889c-42.99 42.882-102.322 69.398-167.848 69.398s-124.858-26.516-167.853-69.403l0.005 0.005c-5.791-5.789-13.789-9.369-22.624-9.369s-16.833 3.58-22.624 9.369v0c-5.789 5.791-9.369 13.789-9.369 22.624s3.58 16.833 9.369 22.624v0c54.574 54.452 129.903 88.123 213.096 88.123s158.522-33.671 213.102-88.129l-0.006 0.005 103.888-103.888c5.789-5.791 9.369-13.789 9.369-22.624s-3.58-16.833-9.369-22.624v0c-5.777-5.792-13.765-9.376-22.591-9.376-0.012 0-0.023 0-0.035 0h0.002zM224.016 169.264c-17.673 0-32 14.327-32 32v0 146.928c0 17.673 14.327 32 32 32v0h146.928c17.673 0 32-14.327 32-32v0c0-17.673-14.327-32-32-32v0h-114.928v-114.928c0-17.673-14.327-32-32-32v0zM518.352 133.392c-0.231-0.001-0.504-0.001-0.778-0.001-82.973 0-158.064 33.745-212.298 88.26l-103.901 103.885c-5.794 5.791-9.377 13.793-9.377 22.632s3.584 16.841 9.377 22.632v0c5.791 5.789 13.789 9.369 22.624 9.369s16.833-3.58 22.624-9.369l103.888-103.888c42.73-42.944 101.875-69.521 167.228-69.521 0.215 0 0.43 0 0.646 0.001h-0.033c0.185-0.001 0.403-0.001 0.622-0.001 65.355 0 124.502 26.576 167.225 69.511l0.009 0.010c5.791 5.789 13.789 9.369 22.624 9.369s16.833-3.58 22.624-9.369v0c5.789-5.791 9.369-13.789 9.369-22.624s-3.58-16.833-9.369-22.624v0c-54.239-54.527-129.324-88.273-212.29-88.273-0.286 0-0.572 0-0.858 0.001h0.044z" />
<glyph unicode="&#xe913;" glyph-name="download" data-tags="download" d="M512.176 196.080c-8.375 0-15.998 3.218-21.702 8.484l0.022-0.020-225.872 208c-6.354 5.866-10.319 14.238-10.319 23.536 0 8.375 3.217 15.998 8.483 21.702l-0.020-0.022c5.866 6.354 14.238 10.319 23.536 10.319 8.375 0 15.998-3.217 21.702-8.483l-0.022 0.020 204.192-188.096 204.224 188.096c5.682 5.246 13.305 8.463 21.68 8.463 9.298 0 17.67-3.966 23.516-10.298l0.020-0.022c5.242-5.681 8.456-13.301 8.456-21.672 0-9.302-3.969-17.677-10.306-23.524l-0.022-0.020-225.888-208c-5.682-5.246-13.305-8.464-21.68-8.464v0zM511.776 196.080c-17.673 0-32 14.327-32 32v0 555.92c0 17.673 14.327 32 32 32v0c17.673 0 32-14.327 32-32v0-555.92c0-17.673-14.327-32-32-32v0zM770.016 56.384h-514.016c-17.673 0-32 14.327-32 32v0c0 17.673 14.327 32 32 32v0h514.016c17.673 0 32-14.327 32-32v0c0-17.673-14.327-32-32-32v0z" />
<glyph unicode="&#xe914;" glyph-name="view" data-tags="view" d="M519.968 179.2c-1.249-0.010-2.725-0.016-4.203-0.016-103.514 0-200.396 28.4-283.277 77.833l2.536-1.401c-58.073 34.631-107.471 76.889-148.756 126.174l-0.732 0.898c-13.396 15.797-21.542 36.415-21.542 58.936s8.146 43.138 21.651 59.068l-0.109-0.132c42.011 50.201 91.409 92.471 146.871 125.653l2.617 1.451c80.309 47.983 177.138 76.353 280.594 76.353 1.53 0 3.058-0.006 4.584-0.019l-0.234 0.001c1.253 0.010 2.733 0.016 4.215 0.016 103.516 0 200.399-28.4 283.282-77.834l-2.537 1.402c58.081-34.62 107.476-76.892 148.738-126.203l0.734-0.901c13.396-15.797 21.542-36.415 21.542-58.936s-8.146-43.138-21.651-59.068l0.109 0.132c-42.002-50.193-91.396-92.454-146.855-125.622l-2.617-1.45c-80.319-47.983-177.158-76.353-280.624-76.353-1.525 0-3.048 0.006-4.57 0.018l0.234-0.001zM519.968 629.088c-1.026 0.008-2.238 0.012-3.452 0.012-148.638 0-281.42-67.891-369.026-174.356l-0.658-0.824c-2.951-3.253-4.757-7.592-4.757-12.352s1.806-9.099 4.77-12.367l-0.014 0.015c88.265-107.252 221.023-175.117 369.632-175.117 1.232 0 2.463 0.005 3.693 0.014l-0.189-0.001c1.084-0.009 2.365-0.014 3.647-0.014 148.566 0 281.28 67.869 368.831 174.293l0.659 0.825c2.951 3.253 4.757 7.592 4.757 12.352s-1.806 9.099-4.77 12.367l0.014-0.015c-88.209 107.25-220.924 175.118-369.489 175.118-1.282 0-2.564-0.005-3.844-0.015l0.197 0.001zM519.968 291.648c-0.893-0.019-1.945-0.029-3-0.029-83.533 0-151.479 66.736-153.429 149.8l-0.003 0.181c1.98 83.224 69.915 149.933 153.431 149.933 1.055 0 2.108-0.011 3.158-0.032l-0.157 0.003c0.893 0.019 1.946 0.029 3.001 0.029 83.516 0 151.451-66.709 153.428-149.75l0.003-0.184c-1.919-83.273-69.878-150.045-153.434-150.045-1.054 0-2.106 0.011-3.155 0.032l0.157-0.002zM519.968 516.592c-0.425 0.008-0.927 0.013-1.429 0.013-41.784 0-75.775-33.369-76.777-74.912l-0.002-0.093c1.848-41.768 36.159-74.931 78.216-74.931s76.368 33.163 78.21 74.765l0.006 0.166c-1.039 41.608-35.016 74.942-76.778 74.942-0.509 0-1.016-0.005-1.522-0.015l0.076 0.001z" />
<glyph unicode="&#xe915;" glyph-name="download1" data-tags="download" d="M785.040 68.88h-518.928c-58.59 0.091-106.057 47.581-106.112 106.171v148.213c0 17.673 14.327 32 32 32v0c17.673 0 32-14.327 32-32v0-148.208c0.009-23.273 18.859-42.14 42.125-42.176h518.915c23.279 0.027 42.142 18.896 42.16 42.174v148.21c0 17.673 14.327 32 32 32v0c17.673 0 32-14.327 32-32v0-148.208c-0.064-58.608-47.553-106.103-106.153-106.176h-0.007zM525.552 291.264c-8.836 0.002-16.834 3.585-22.624 9.376l-185.328 185.296c-5.789 5.791-9.369 13.789-9.369 22.624s3.58 16.833 9.369 22.624v0c5.791 5.794 13.793 9.377 22.632 9.377s16.841-3.584 22.632-9.377l162.704-162.688 162.672 162.672c5.791 5.789 13.789 9.369 22.624 9.369s16.833-3.58 22.624-9.369v0c5.789-5.791 9.369-13.789 9.369-22.624s-3.58-16.833-9.369-22.624l-185.312-185.264c-5.788-5.797-13.786-9.385-22.623-9.392h-0.001zM525.552 291.264c-17.673 0-32 14.327-32 32v0 444.8c0 17.673 14.327 32 32 32v0c17.673 0 32-14.327 32-32v0-444.8c0-17.673-14.327-32-32-32v0z" />
<glyph unicode="&#xe916;" glyph-name="upload" data-tags="upload" d="M785.040 68.88h-518.928c-58.59 0.091-106.057 47.581-106.112 106.171v148.213c0 17.673 14.327 32 32 32v0c17.673 0 32-14.327 32-32v0-148.208c0.009-23.273 18.859-42.14 42.125-42.176h518.915c23.279 0.027 42.142 18.896 42.16 42.174v148.21c0 17.673 14.327 32 32 32v0c17.673 0 32-14.327 32-32v0-148.208c-0.064-58.608-47.553-106.103-106.153-106.176h-0.007zM525.552 800c-8.836-0.002-16.834-3.585-22.624-9.376l-185.328-185.296c-5.789-5.791-9.369-13.789-9.369-22.624s3.58-16.833 9.369-22.624v0c5.791-5.794 13.793-9.377 22.632-9.377s16.841 3.584 22.632 9.377l162.704 162.688 162.656-162.688c5.791-5.789 13.789-9.369 22.624-9.369s16.833 3.58 22.624 9.369v0c5.789 5.791 9.369 13.789 9.369 22.624s-3.58 16.833-9.369 22.624l-185.296 185.296c-5.79 5.791-13.788 9.374-22.624 9.376v0zM525.552 800c-17.673 0-32-14.327-32-32v0-444.8c0-17.673 14.327-32 32-32v0c17.673 0 32 14.327 32 32v0 444.8c0 17.673-14.327 32-32 32v0z" />
<glyph unicode="&#xe917;" glyph-name="edit" data-tags="edit" d="M353.6 128h-117.456c-15.536 0.018-28.126 12.608-28.144 28.142v117.458c0 0.079 0 0.172 0 0.266 0 23.239 9.464 44.267 24.747 59.441l394.037 393.973c15.278 15.271 36.38 24.715 59.688 24.715s44.41-9.445 59.688-24.716l61.152-61.104c15.249-15.293 24.678-36.398 24.678-59.704s-9.429-44.411-24.68-59.706l-394.046-394.030c-15.224-15.281-36.286-24.736-59.556-24.736-0.038 0-0.076 0-0.114 0h0.006zM573.888 594.816v0l-301.344-301.36c-5.090-5.066-8.24-12.077-8.24-19.825 0-0.011 0-0.022 0-0.033v0.002-89.264h89.296c0.024 0 0.053 0 0.082 0 7.759 0 14.782 3.156 19.853 8.255l301.265 301.281-100.912 100.944zM686.4 695.728c-0.020 0-0.045 0-0.069 0-7.756 0-14.776-3.15-19.851-8.239l-0.001-0.001-52.8-52.896 100.912-100.912 52.896 52.896c5.065 5.098 8.196 12.123 8.196 19.88s-3.131 14.782-8.198 19.882l0.001-0.002-61.12 61.152c-5.061 5.090-12.069 8.24-19.812 8.24-0.055 0-0.11 0-0.165 0h0.008z" />
<glyph unicode="&#xe918;" glyph-name="delete" data-tags="delete" d="M653.104 59.728h-261.52c-0.049 0-0.106 0-0.163 0-47.783 0-87.152 36.020-92.437 82.389l-0.040 0.427-52.8 476.16h-3.2c-17.152 0-31.056 13.904-31.056 31.056s13.904 31.056 31.056 31.056h155.2v31.088c0.073 51.417 41.735 93.079 93.145 93.152h62.119c51.427-0.073 93.1-41.729 93.2-93.142v-31.098h155.2c17.152 0 31.056-13.904 31.056-31.056s-13.904-31.056-31.056-31.056h-3.2l-52.96-476.16c-5.278-46.788-44.627-82.816-92.391-82.816-0.054 0-0.108 0-0.162 0h0.008zM308.56 618.704l52.304-469.296c1.759-15.575 14.859-27.568 30.759-27.568 0.031 0 0.062 0 0.094 0h261.387c0.019 0 0.042 0 0.065 0 15.916 0 29.033 11.986 30.817 27.424l0.014 0.144 52.016 469.296zM491.264 742.928c-17.136-0.018-31.022-13.904-31.040-31.038v-31.090h124.224v31.088c-0.045 17.141-13.943 31.022-31.086 31.040h-0.002zM584.464 214.928c-17.145 0.018-31.043 13.899-31.088 31.036v248.516c0 17.152 13.904 31.056 31.056 31.056s31.056-13.904 31.056-31.056v0-248.464c0-0.014 0-0.031 0-0.048 0-17.143-13.897-31.040-31.040-31.040-0.006 0-0.011 0-0.017 0h0.001zM460.24 214.928c-0.010 0-0.021 0-0.032 0-17.146 0-31.047 13.895-31.056 31.039v248.513c-0.005 0.21-0.008 0.457-0.008 0.705 0 17.143 13.897 31.040 31.040 31.040s31.040-13.897 31.040-31.040c0-0.248-0.003-0.495-0.009-0.741l0.001 0.037v-248.464c0-0.005 0-0.010 0-0.016 0-17.144-13.884-31.045-31.021-31.072h-0.003z" />
<glyph unicode="&#xe919;" glyph-name="calendar" data-tags="calendar" d="M736 64h-448c-70.659 0.082-127.918 57.34-128 127.992v448.008c0.082 70.659 57.34 127.918 127.992 128h448.008c70.659-0.082 127.918-57.34 128-127.992v-448.008c-0.082-70.659-57.34-127.918-127.992-128h-0.008zM288 704c-35.328-0.046-63.954-28.672-64-63.996v-448.004c0-35.346 28.654-64 64-64v0h448c35.346 0 64 28.654 64 64v0 448c0 35.346-28.654 64-64 64v0zM704 656c-17.673 0-32 14.327-32 32v0 112c0 17.673 14.327 32 32 32v0c17.673 0 32-14.327 32-32v0-112c0-17.673-14.327-32-32-32v0zM352 656c-17.673 0-32 14.327-32 32v0 112c0 17.673 14.327 32 32 32v0c17.673 0 32-14.327 32-32v0-112c0-17.673-14.327-32-32-32v0zM832 544h-640c-17.673 0-32 14.327-32 32v0c0 17.673 14.327 32 32 32v0h640c17.673 0 32-14.327 32-32v0c0-17.673-14.327-32-32-32v0z" />
<glyph unicode="&#xe91a;" glyph-name="options" data-tags="options" d="M288 440c0-48.601-39.399-88-88-88s-88 39.399-88 88c0 48.601 39.399 88 88 88s88-39.399 88-88zM608 440c0-48.601-39.399-88-88-88s-88 39.399-88 88c0 48.601 39.399 88 88 88s88-39.399 88-88zM912 440c0-48.601-39.399-88-88-88s-88 39.399-88 88c0 48.601 39.399 88 88 88s88-39.399 88-88z" />
<glyph unicode="&#xe91b;" glyph-name="correct" data-tags="correct" d="M512 64c-211.978 0.246-383.754 172.021-384 383.976v0.024c0.246 211.978 172.021 383.754 383.976 384h0.024c211.975-0.255 383.745-172.025 384-383.975v-0.025c-0.246-211.978-172.021-383.754-383.976-384h-0.024zM512 768c-176.647-0.209-319.791-143.353-320-319.98v-0.020c0.2-176.651 143.349-319.8 319.981-320h0.019c176.651 0.2 319.8 143.349 320 319.981v0.019c-0.209 176.647-143.353 319.791-319.98 320h-0.020zM443.008 301.408c-8.836 0.002-16.834 3.585-22.624 9.376l-109.344 109.376c-5.789 5.791-9.369 13.789-9.369 22.624s3.58 16.833 9.369 22.624v0c5.791 5.789 13.789 9.369 22.624 9.369s16.833-3.58 22.624-9.369l86.688-86.688 215.472 215.408c5.791 5.794 13.793 9.377 22.632 9.377s16.841-3.584 22.632-9.377v0c5.794-5.791 9.377-13.793 9.377-22.632s-3.584-16.841-9.377-22.632l-238.080-238.016c-5.781-5.815-13.78-9.42-22.62-9.44h-0.004z" />
<glyph unicode="&#xe91c;" glyph-name="warning" data-tags="warning" d="M512 64c-211.978 0.246-383.754 172.021-384 383.976v0.024c0.246 211.978 172.021 383.754 383.976 384h0.024c211.975-0.255 383.745-172.025 384-383.975v-0.025c-0.246-211.978-172.021-383.754-383.976-384h-0.024zM512 768c-176.647-0.209-319.791-143.353-320-319.98v-0.020c0.2-176.651 143.349-319.8 319.981-320h0.019c176.651 0.2 319.8 143.349 320 319.981v0.019c-0.209 176.647-143.353 319.791-319.98 320h-0.020zM512 359.968c-17.673 0-32 14.327-32 32v0 216c0 17.673 14.327 32 32 32v0c17.673 0 32-14.327 32-32v0-216c0-17.673-14.327-32-32-32v0zM512 255.984c-0.026 0-0.057 0-0.088 0-8.797 0-16.752 3.606-22.467 9.42l-0.004 0.004c-5.828 5.719-9.44 13.678-9.44 22.481 0 0.033 0 0.067 0 0.1v-0.005c-0.001 0.094-0.002 0.205-0.002 0.317 0 2.093 0.234 4.132 0.677 6.091l-0.035-0.184c0.38 2.285 0.992 4.327 1.826 6.252l-0.066-0.172c0.86 2.078 1.879 3.869 3.090 5.511l-0.050-0.071c1.148 1.891 2.472 3.521 3.988 4.949l0.012 0.011c5.895 5.501 13.833 8.878 22.56 8.878s16.665-3.377 22.579-8.895l-0.019 0.018c1.528-1.439 2.852-3.069 3.942-4.857l0.058-0.103c1.078-1.561 2.092-3.346 2.949-5.218l0.091-0.222c0.676-1.699 1.283-3.735 1.717-5.834l0.043-0.246c0.408-1.775 0.642-3.814 0.642-5.907 0-0.111-0.001-0.223-0.002-0.334v0.017c0-0.028 0-0.062 0-0.095 0-8.803-3.612-16.762-9.435-22.476l-0.005-0.005c-5.72-5.818-13.675-9.424-22.472-9.424-0.031 0-0.062 0-0.093 0h0.005z" />
<glyph unicode="&#xe91d;" glyph-name="information" data-tags="information" d="M512 64c-211.978 0.246-383.754 172.021-384 383.976v0.024c0.246 211.978 172.021 383.754 383.976 384h0.024c211.975-0.255 383.745-172.025 384-383.975v-0.025c-0.246-211.978-172.021-383.754-383.976-384h-0.024zM512 768c-176.647-0.209-319.791-143.353-320-319.98v-0.020c0.2-176.651 143.349-319.8 319.981-320h0.019c176.651 0.2 319.8 143.349 320 319.981v0.019c-0.209 176.647-143.353 319.791-319.98 320h-0.020zM512 256c-17.673 0-32 14.327-32 32v0 216c0 17.673 14.327 32 32 32v0c17.673 0 32-14.327 32-32v0-216c0-17.673-14.327-32-32-32v0zM512 575.968c-2.249 0.060-4.399 0.291-6.494 0.679l0.254-0.039c-2.080 0.48-4 1.12-6.080 1.76-2.096 0.953-3.881 1.968-5.564 3.12l0.124-0.080c-1.829 1.151-3.407 2.474-4.784 3.982l-0.016 0.018c-1.527 1.393-2.849 2.971-3.945 4.706l-0.055 0.094c-1.155 1.616-2.175 3.46-2.974 5.418l-0.066 0.182c-0.677 1.658-1.284 3.639-1.718 5.684l-0.042 0.236c-0.408 1.777-0.642 3.818-0.642 5.913 0 0.115 0.001 0.23 0.002 0.345v-0.017c-0.001 0.097-0.002 0.212-0.002 0.327 0 2.095 0.234 4.136 0.677 6.097l-0.035-0.184c0.477 2.345 1.084 4.381 1.849 6.339l-0.089-0.259c0.864 2.078 1.884 3.869 3.091 5.513l-0.051-0.073c1.2 1.869 2.52 3.493 3.998 4.958l0.002 0.002c5.895 5.501 13.833 8.878 22.56 8.878s16.665-3.377 22.579-8.895l-0.019 0.018c5.828-5.809 9.436-13.843 9.44-22.719v-0.001c0-0.027 0-0.060 0-0.093 0-8.799-3.612-16.753-9.435-22.462l-0.005-0.005c-1.393-1.527-2.971-2.849-4.706-3.945l-0.094-0.055c-1.612-1.117-3.454-2.135-5.396-2.963l-0.204-0.077c-1.92-0.64-3.84-1.28-5.92-1.76-1.841-0.349-3.991-0.58-6.184-0.639l-0.056-0.001z" />
<glyph unicode="&#xe91e;" glyph-name="pdf_file" data-tags="pdf_file" d="M857.904 684.416l-160.208 154.608c-5.744 5.55-13.576 8.972-22.207 8.976h-372.801c-78.764-0.1-142.588-63.924-142.688-142.678v-519.050c0.1-78.764 63.924-142.588 142.678-142.688h422.314c78.768 0.091 142.597 63.92 142.688 142.679v475.129c0 0 0 0 0 0 0 9.035-3.745 17.196-9.767 23.015l-0.009 0.009zM803.68 186.272c-0.046-43.44-35.248-78.643-78.684-78.688h-422.308c-43.44 0.046-78.643 35.248-78.688 78.684v519.044c0.046 43.44 35.248 78.643 78.684 78.688h359.876l141.12-136.208zM634.064 424.688c-15.805-0.986-30.33-2.814-44.558-5.482l2.222 0.346c-12.545 9.821-23.672 19.503-34.283 29.717l0.139-0.133c-10.528 10.512-20.192 20.96-28.8 31.040 8.639 21.871 15.39 47.406 19.091 73.918l0.205 1.794c0 45.536-14.224 64.112-49.072 64.112-18.336 0-49.088-8.528-49.088-65.6 0-22.816 12.176-50.4 36.192-82.032q-6.064-18.48-13.472-40.672l-6.672-20.112c-3.456-10.368-7.312-20.4-11.488-29.824-3.088-1.392-6.096-2.816-9.040-4.24-10.512-5.248-20.576-10.032-30-14.512l-3.728-1.776c-49.36-23.376-81.968-38.816-81.968-71.024 0-24 25.472-38.88 49.072-38.88 31.744 0 74.288 41.456 103.824 100.992 27.893 10.606 61.201 19.881 95.541 26.208l3.659 0.56c32.624-24.96 55.296-37.6 67.424-37.6 42.688 0 49.072 27.328 49.072 43.616 0 38.992-43.712 39.52-63.552 39.52zM651.184 379.52c-5.489 2.297-10.101 4.671-14.502 7.354l0.47-0.266c1.706 0.198 3.682 0.312 5.685 0.312 6.275 0 12.29-1.111 17.86-3.147l-0.361 0.116c-0.064-4.144-0.752-4.368-9.152-4.368zM502.064 399.68l12.944 38.848c4.976-5.344 10.224-10.784 15.664-16.224 2.48-2.48 7.408-6.944 13.296-12.096-14.912-3.408-28.992-7.12-42.064-11.040zM499.056 581.936c8.688 0 11.024 0 11.072-25.456-2.251-14.763-5.457-27.823-9.689-40.411l0.489 1.675c-6.71 10.557-11.301 23.1-12.858 36.567l-0.038 0.409c0.048 27.216 7.248 27.216 11.024 27.216zM419.456 322.736c-18.768-23.36-35.2-33.296-40.624-33.296h-2.608c-2.952 0.289-5.641 1.192-8.013 2.578l0.093-0.050c3.904 7.648 29.792 20.608 51.152 30.816z" />
</font>
</defs>
</svg>
